<svg xmlns="http://www.w3.org/2000/svg" xmlns:xlink="http://www.w3.org/1999/xlink" width="100" zoomAndPan="magnify" viewBox="0 0 75 74.999997" height="100" preserveAspectRatio="xMidYMid meet" version="1.0"><defs><clipPath id="25f2bbb0d1"><path d="M 55 26 L 73.410156 26 L 73.410156 43 L 55 43 Z M 55 26 " clip-rule="nonzero"/></clipPath><clipPath id="c408def087"><path d="M 1.410156 17 L 20 17 L 20 36 L 1.410156 36 Z M 1.410156 17 " clip-rule="nonzero"/></clipPath><clipPath id="8d3be4e41a"><path d="M 26 7.5 L 52 7.5 L 52 17 L 26 17 Z M 26 7.5 " clip-rule="nonzero"/></clipPath><clipPath id="4b82e455f1"><path d="M 54 51 L 66 51 L 66 65.25 L 54 65.25 Z M 54 51 " clip-rule="nonzero"/></clipPath></defs><path fill="#0097b2" d="M 54.289062 23.027344 C 54.988281 23.027344 55.554688 22.460938 55.554688 21.761719 C 55.554688 21.480469 55.460938 21.222656 55.308594 21.011719 L 57.261719 18.511719 C 57.976562 18.988281 58.839844 19.269531 59.765625 19.269531 C 61.027344 19.269531 62.164062 18.753906 62.984375 17.921875 L 66.117188 20.578125 C 65.808594 21.042969 65.628906 21.601562 65.628906 22.199219 C 65.628906 23.820312 66.941406 25.132812 68.5625 25.132812 C 70.179688 25.132812 71.492188 23.820312 71.492188 22.199219 C 71.492188 20.582031 70.179688 19.269531 68.5625 19.269531 C 67.785156 19.269531 67.085938 19.570312 66.558594 20.058594 L 63.425781 17.402344 C 63.96875 16.65625 64.289062 15.738281 64.289062 14.746094 C 64.289062 12.25 62.261719 10.222656 59.765625 10.222656 C 57.269531 10.222656 55.242188 12.25 55.242188 14.746094 C 55.242188 16.070312 55.8125 17.265625 56.722656 18.089844 L 54.769531 20.589844 C 54.621094 20.53125 54.460938 20.496094 54.289062 20.496094 C 53.589844 20.496094 53.023438 21.0625 53.023438 21.761719 C 53.023438 22.460938 53.589844 23.027344 54.289062 23.027344 " fill-opacity="1" fill-rule="nonzero"/><path fill="#0097b2" d="M 55.351562 53.363281 L 47.90625 48.113281 C 48.132812 47.699219 48.261719 47.222656 48.261719 46.714844 C 48.261719 45.097656 46.949219 43.785156 45.328125 43.785156 C 43.710938 43.785156 42.398438 45.097656 42.398438 46.714844 C 42.398438 48.335938 43.710938 49.648438 45.328125 49.648438 C 46.195312 49.648438 46.976562 49.269531 47.511719 48.671875 L 54.960938 53.921875 C 54.914062 54.050781 54.886719 54.195312 54.886719 54.34375 C 54.886719 55.042969 55.453125 55.609375 56.152344 55.609375 C 56.851562 55.609375 57.417969 55.042969 57.417969 54.34375 C 57.417969 53.804688 57.078125 53.34375 56.605469 53.160156 L 56.710938 52.007812 C 56.738281 52.007812 56.761719 52.011719 56.789062 52.011719 C 59.285156 52.011719 61.3125 49.984375 61.3125 47.488281 C 61.3125 44.992188 59.285156 42.964844 56.789062 42.964844 C 54.292969 42.964844 52.265625 44.992188 52.265625 47.488281 C 52.265625 49.726562 53.894531 51.585938 56.03125 51.945312 L 55.925781 53.097656 C 55.710938 53.136719 55.515625 53.230469 55.351562 53.363281 " fill-opacity="1" fill-rule="nonzero"/><path fill="#737373" d="M 49.898438 29.175781 C 49.898438 29.320312 49.921875 29.460938 49.96875 29.59375 L 47.519531 31.3125 C 47.011719 30.75 46.292969 30.378906 45.488281 30.335938 L 45.160156 25.085938 C 46.527344 24.835938 47.566406 23.640625 47.566406 22.199219 C 47.566406 20.582031 46.253906 19.269531 44.636719 19.269531 C 43.015625 19.269531 41.703125 20.582031 41.703125 22.199219 C 41.703125 22.785156 41.875 23.328125 42.171875 23.785156 L 39.246094 26.1875 C 39.042969 26.042969 38.792969 25.957031 38.523438 25.957031 C 37.824219 25.957031 37.257812 26.523438 37.257812 27.222656 C 37.257812 27.921875 37.824219 28.488281 38.523438 28.488281 C 39.222656 28.488281 39.789062 27.921875 39.789062 27.222656 C 39.789062 27.042969 39.75 26.871094 39.679688 26.714844 L 42.601562 24.3125 C 43.09375 24.785156 43.75 25.089844 44.476562 25.128906 L 44.808594 30.378906 C 43.4375 30.625 42.398438 31.824219 42.398438 33.265625 C 42.398438 34.882812 43.710938 36.195312 45.328125 36.195312 C 46.949219 36.195312 48.261719 34.882812 48.261719 33.265625 C 48.261719 32.761719 48.132812 32.285156 47.910156 31.871094 L 50.359375 30.152344 C 50.578125 30.332031 50.859375 30.441406 51.164062 30.441406 C 51.859375 30.441406 52.425781 29.875 52.425781 29.175781 C 52.425781 28.476562 51.859375 27.910156 51.164062 27.910156 C 50.464844 27.910156 49.898438 28.476562 49.898438 29.175781 " fill-opacity="1" fill-rule="nonzero"/><g clip-path="url(#25f2bbb0d1)"><path fill="#737373" d="M 71.058594 28.265625 C 69.796875 28.265625 68.75 29.203125 68.585938 30.425781 L 64.273438 30.425781 C 64.101562 28.085938 62.148438 26.242188 59.765625 26.242188 C 57.269531 26.242188 55.242188 28.265625 55.242188 30.765625 C 55.242188 33.261719 57.269531 35.285156 59.765625 35.285156 C 62.148438 35.285156 64.101562 33.445312 64.273438 31.105469 L 68.585938 31.105469 C 68.683594 31.832031 69.09375 32.457031 69.675781 32.84375 L 67.898438 36.515625 C 67.597656 36.410156 67.277344 36.355469 66.9375 36.355469 C 65.320312 36.355469 64.007812 37.667969 64.007812 39.285156 C 64.007812 40.90625 65.320312 42.21875 66.9375 42.21875 C 68.558594 42.21875 69.871094 40.90625 69.871094 39.285156 C 69.871094 38.246094 69.328125 37.332031 68.515625 36.8125 L 70.289062 33.140625 C 70.53125 33.222656 70.792969 33.265625 71.058594 33.265625 C 72.441406 33.265625 73.558594 32.144531 73.558594 30.765625 C 73.558594 29.382812 72.441406 28.265625 71.058594 28.265625 " fill-opacity="1" fill-rule="nonzero"/></g><path fill="#737373" d="M 21.34375 19.269531 C 21.742188 19.269531 22.128906 19.214844 22.5 19.117188 L 25.824219 28.714844 C 25.496094 28.945312 25.28125 29.324219 25.28125 29.753906 C 25.28125 30.453125 25.847656 31.019531 26.546875 31.019531 C 27.246094 31.019531 27.8125 30.453125 27.8125 29.753906 C 27.8125 29.054688 27.246094 28.488281 26.546875 28.488281 C 26.519531 28.488281 26.496094 28.492188 26.46875 28.492188 L 23.144531 18.894531 C 23.675781 18.664062 24.152344 18.335938 24.554688 17.929688 L 28.632812 21.398438 C 28.320312 21.863281 28.136719 22.425781 28.136719 23.027344 C 28.136719 24.644531 29.449219 25.957031 31.070312 25.957031 C 32.6875 25.957031 34 24.644531 34 23.027344 C 34 21.40625 32.6875 20.09375 31.070312 20.09375 C 30.296875 20.09375 29.597656 20.394531 29.074219 20.878906 L 24.996094 17.410156 C 25.542969 16.664062 25.867188 15.742188 25.867188 14.746094 C 25.867188 12.25 23.839844 10.222656 21.34375 10.222656 C 18.847656 10.222656 16.820312 12.25 16.820312 14.746094 C 16.820312 17.242188 18.847656 19.269531 21.34375 19.269531 " fill-opacity="1" fill-rule="nonzero"/><path fill="#737373" d="M 19.351562 38.21875 C 21.847656 38.21875 23.875 36.195312 23.875 33.695312 C 23.875 31.199219 21.847656 29.175781 19.351562 29.175781 C 16.855469 29.175781 14.828125 31.199219 14.828125 33.695312 C 14.828125 35.664062 16.085938 37.332031 17.835938 37.957031 L 16.8125 41.699219 C 16.425781 41.703125 16.078125 41.878906 15.847656 42.15625 L 13.277344 41.003906 C 13.367188 40.726562 13.414062 40.433594 13.414062 40.125 C 13.414062 38.507812 12.101562 37.195312 10.480469 37.195312 C 8.863281 37.195312 7.550781 38.507812 7.550781 40.125 C 7.550781 41.746094 8.863281 43.058594 10.480469 43.058594 C 11.550781 43.058594 12.488281 42.484375 13 41.625 L 15.570312 42.78125 C 15.5625 42.839844 15.554688 42.902344 15.554688 42.964844 C 15.554688 43.664062 16.121094 44.230469 16.820312 44.230469 C 17.519531 44.230469 18.085938 43.664062 18.085938 42.964844 C 18.085938 42.503906 17.839844 42.101562 17.472656 41.882812 L 18.492188 38.136719 C 18.769531 38.191406 19.058594 38.21875 19.351562 38.21875 " fill-opacity="1" fill-rule="nonzero"/><g clip-path="url(#c408def087)"><path fill="#0097b2" d="M 10.480469 30.765625 C 10.480469 30.203125 10.378906 29.667969 10.191406 29.175781 L 17.125 25.953125 C 17.359375 26.222656 17.703125 26.398438 18.085938 26.398438 C 18.785156 26.398438 19.351562 25.832031 19.351562 25.132812 C 19.351562 24.433594 18.785156 23.867188 18.085938 23.867188 C 17.742188 23.867188 17.433594 24.003906 17.203125 24.226562 L 12.796875 21.664062 C 12.953125 21.304688 13.039062 20.910156 13.039062 20.496094 C 13.039062 18.878906 11.726562 17.5625 10.109375 17.5625 C 8.488281 17.5625 7.175781 18.878906 7.175781 20.496094 C 7.175781 22.113281 8.488281 23.425781 10.109375 23.425781 C 11.070312 23.425781 11.921875 22.964844 12.457031 22.253906 L 16.863281 24.816406 C 16.835938 24.917969 16.820312 25.023438 16.820312 25.132812 C 16.820312 25.199219 16.828125 25.269531 16.839844 25.335938 L 9.90625 28.554688 C 9.128906 27.175781 7.652344 26.242188 5.957031 26.242188 C 3.460938 26.242188 1.4375 28.265625 1.4375 30.765625 C 1.4375 33.261719 3.460938 35.289062 5.957031 35.289062 C 8.457031 35.289062 10.480469 33.261719 10.480469 30.765625 " fill-opacity="1" fill-rule="nonzero"/></g><path fill="#0097b2" d="M 67.507812 44.648438 C 66.945312 44.648438 66.429688 44.832031 66.011719 45.144531 L 60.863281 39.914062 C 60.96875 39.730469 61.03125 39.515625 61.03125 39.285156 C 61.03125 38.585938 60.464844 38.019531 59.765625 38.019531 C 59.214844 38.019531 58.746094 38.371094 58.574219 38.863281 L 51.136719 38.367188 C 51.015625 37.792969 50.507812 37.359375 49.898438 37.359375 C 49.199219 37.359375 48.632812 37.925781 48.632812 38.625 C 48.632812 39.324219 49.199219 39.890625 49.898438 39.890625 C 50.449219 39.890625 50.914062 39.539062 51.089844 39.046875 L 58.527344 39.542969 C 58.648438 40.117188 59.15625 40.550781 59.765625 40.550781 C 59.988281 40.550781 60.195312 40.492188 60.378906 40.394531 L 65.527344 45.621094 C 65.203125 46.042969 65.007812 46.574219 65.007812 47.148438 C 65.007812 48.527344 66.125 49.648438 67.507812 49.648438 C 68.886719 49.648438 70.007812 48.527344 70.007812 47.148438 C 70.007812 45.765625 68.886719 44.648438 67.507812 44.648438 " fill-opacity="1" fill-rule="nonzero"/><g clip-path="url(#8d3be4e41a)"><path fill="#0097b2" d="M 29.476562 13.859375 C 30.6875 13.859375 31.699219 13 31.929688 11.855469 L 35.59375 12.085938 C 35.625 14.554688 37.636719 16.546875 40.113281 16.546875 C 42.609375 16.546875 44.636719 14.523438 44.636719 12.023438 C 44.636719 11.660156 44.589844 11.304688 44.507812 10.960938 L 48.84375 9.558594 C 49.070312 9.902344 49.457031 10.125 49.898438 10.125 C 50.597656 10.125 51.164062 9.558594 51.164062 8.859375 C 51.164062 8.160156 50.597656 7.59375 49.898438 7.59375 C 49.199219 7.59375 48.632812 8.160156 48.632812 8.859375 C 48.632812 8.878906 48.632812 8.894531 48.632812 8.910156 L 44.300781 10.3125 C 43.625 8.664062 42.003906 7.503906 40.113281 7.503906 C 37.828125 7.503906 35.9375 9.199219 35.636719 11.402344 L 31.96875 11.175781 C 31.875 9.882812 30.796875 8.859375 29.476562 8.859375 C 28.097656 8.859375 26.980469 9.980469 26.980469 11.359375 C 26.980469 12.742188 28.097656 13.859375 29.476562 13.859375 " fill-opacity="1" fill-rule="nonzero"/></g><g clip-path="url(#4b82e455f1)"><path fill="#737373" d="M 62.699219 51.523438 C 61.078125 51.523438 59.765625 52.835938 59.765625 54.457031 C 59.765625 55.054688 59.945312 55.613281 60.253906 56.078125 L 58.460938 57.597656 C 58.015625 57.199219 57.429688 56.957031 56.789062 56.957031 C 55.410156 56.957031 54.289062 58.074219 54.289062 59.457031 C 54.289062 60.835938 55.410156 61.957031 56.789062 61.957031 C 57.160156 61.957031 57.511719 61.875 57.828125 61.730469 L 58.828125 63.304688 C 58.625 63.53125 58.5 63.824219 58.5 64.152344 C 58.5 64.851562 59.066406 65.417969 59.765625 65.417969 C 60.464844 65.417969 61.03125 64.851562 61.03125 64.152344 C 61.03125 63.453125 60.464844 62.886719 59.765625 62.886719 C 59.640625 62.886719 59.515625 62.90625 59.402344 62.941406 L 58.402344 61.363281 C 58.945312 60.90625 59.289062 60.21875 59.289062 59.457031 C 59.289062 58.960938 59.144531 58.503906 58.898438 58.117188 L 60.695312 56.597656 C 61.21875 57.085938 61.921875 57.386719 62.699219 57.386719 C 64.316406 57.386719 65.628906 56.074219 65.628906 54.457031 C 65.628906 52.835938 64.316406 51.523438 62.699219 51.523438 " fill-opacity="1" fill-rule="nonzero"/></g><path fill="#0097b2" d="M 35.589844 46.714844 C 34.609375 46.714844 33.742188 47.199219 33.207031 47.941406 L 30.660156 46.53125 C 30.921875 45.957031 31.070312 45.320312 31.070312 44.648438 C 31.070312 43.292969 30.472656 42.082031 29.535156 41.253906 L 31.558594 38.566406 C 32.261719 39.023438 33.101562 39.285156 34 39.285156 C 36.5 39.285156 38.523438 37.261719 38.523438 34.761719 C 38.523438 32.265625 36.5 30.242188 34 30.242188 C 31.503906 30.242188 29.476562 32.265625 29.476562 34.761719 C 29.476562 36.117188 30.074219 37.328125 31.015625 38.15625 L 28.988281 40.84375 C 28.285156 40.390625 27.445312 40.125 26.546875 40.125 C 24.050781 40.125 22.023438 42.148438 22.023438 44.648438 C 22.023438 47.144531 24.050781 49.167969 26.546875 49.167969 C 28.128906 49.167969 29.519531 48.355469 30.328125 47.128906 L 32.878906 48.535156 C 32.738281 48.878906 32.660156 49.253906 32.660156 49.648438 C 32.660156 51.265625 33.972656 52.578125 35.589844 52.578125 C 37.210938 52.578125 38.523438 51.265625 38.523438 49.648438 C 38.523438 48.027344 37.210938 46.714844 35.589844 46.714844 " fill-opacity="1" fill-rule="nonzero"/><path fill="#737373" d="M 49.898438 51.523438 C 48.636719 51.523438 47.566406 52.316406 47.148438 53.429688 L 43.660156 52.574219 C 43.640625 51.894531 43.082031 51.351562 42.398438 51.351562 C 42.378906 51.351562 42.363281 51.351562 42.34375 51.355469 L 39.523438 42.753906 C 39.863281 42.527344 40.085938 42.140625 40.085938 41.699219 C 40.085938 41 39.519531 40.433594 38.820312 40.433594 C 38.125 40.433594 37.554688 41 37.554688 41.699219 C 37.554688 42.398438 38.125 42.964844 38.820312 42.964844 C 38.839844 42.964844 38.859375 42.964844 38.875 42.964844 L 41.695312 51.566406 C 41.355469 51.792969 41.132812 52.175781 41.132812 52.617188 C 41.132812 53.316406 41.699219 53.882812 42.398438 53.882812 C 42.871094 53.882812 43.28125 53.621094 43.5 53.238281 L 46.988281 54.09375 C 46.972656 54.210938 46.964844 54.332031 46.964844 54.457031 C 46.964844 56.074219 48.277344 57.386719 49.898438 57.386719 C 51.515625 57.386719 52.828125 56.074219 52.828125 54.457031 C 52.828125 52.835938 51.515625 51.523438 49.898438 51.523438 " fill-opacity="1" fill-rule="nonzero"/></svg>